<svg id="visual" viewBox="0 0 900 600" width="900" height="600" xmlns="http://www.w3.org/2000/svg" xmlns:xlink="http://www.w3.org/1999/xlink" version="1.1"><rect x="0" y="0" width="900" height="600" fill="#4dacff"></rect><defs><linearGradient id="grad1_0" x1="33.3%" y1="0%" x2="100%" y2="100%"><stop offset="20%" stop-color="#4dacff" stop-opacity="1"></stop><stop offset="80%" stop-color="#4dacff" stop-opacity="1"></stop></linearGradient></defs><defs><linearGradient id="grad2_0" x1="0%" y1="0%" x2="66.7%" y2="100%"><stop offset="20%" stop-color="#4dacff" stop-opacity="1"></stop><stop offset="80%" stop-color="#4dacff" stop-opacity="1"></stop></linearGradient></defs><g transform="translate(900, 0)"><path d="M0 216.3C-21.9 208.1 -43.8 199.9 -61.5 189.3C-79.2 178.7 -92.8 165.7 -114 156.9C-135.3 148.2 -164.2 143.6 -175 127.2C-185.9 110.7 -178.7 82.5 -182.6 59.3C-186.5 36.2 -201.4 18.1 -216.3 0L0 0Z" fill="#001122"></path></g><g transform="translate(0, 600)"><path d="M0 -216.3C20 -208.3 40 -200.2 63.7 -195.9C87.3 -191.6 114.7 -191.1 127.2 -175C139.6 -158.9 137.1 -127.3 148.1 -107.6C159 -87.8 183.3 -79.9 196.9 -64C210.5 -48 213.4 -24 216.3 0L0 0Z" fill="#001122"></path></g></svg>