<svg id="visual" viewBox="0 0 900 600" width="900" height="600" xmlns="http://www.w3.org/2000/svg" xmlns:xlink="http://www.w3.org/1999/xlink" version="1.1"><path d="M0 268L30 276C60 284 120 300 180 318.7C240 337.3 300 358.7 360 355.3C420 352 480 324 540 307C600 290 660 284 720 279.7C780 275.3 840 272.7 870 271.3L900 270L900 601L870 601C840 601 780 601 720 601C660 601 600 601 540 601C480 601 420 601 360 601C300 601 240 601 180 601C120 601 60 601 30 601L0 601Z" fill="#001122" stroke-linecap="round" stroke-linejoin="miter"></path></svg>