<svg xmlns="http://www.w3.org/2000/svg" version="1.1" xmlns:xlink="http://www.w3.org/1999/xlink" xmlns:svgjs="http://svgjs.dev/svgjs" width="1440" height="560" preserveAspectRatio="none" viewBox="0 0 1440 560"><g mask="url(&quot;#SvgjsMask1002&quot;)" fill="none"><path d="M -358.74878728793544,217 C -262.75,244 -70.75,368.6 121.25121271206456,352 C 313.25,335.4 409.25,132.2 601.2512127120646,134 C 793.25,135.8 889.25,351.8 1081.2512127120644,361 C 1273.25,370.2 1489.5,160.2 1561.2512127120644,180 C 1633,199.8 1464.25,404 1440,460" stroke="rgba(51, 121, 194, 0.58)" stroke-width="2"></path><path d="M -689.1776376334001,484 C -593.18,402.4 -401.18,88.4 -209.17763763340002,76 C -17.18,63.6 78.82,417.2 270.8223623666,422 C 462.82,426.8 558.82,124.2 750.8223623665999,100 C 942.82,75.8 1092.99,269.6 1230.8223623666,301 C 1368.66,332.4 1398.16,265.8 1440,257" stroke="rgba(51, 121, 194, 0.58)" stroke-width="2"></path><path d="M -774.6988758103265,406 C -678.7,351 -486.7,126.8 -294.6988758103265,131 C -102.7,135.2 -6.7,432.8 185.3011241896735,427 C 377.3,421.2 473.3,110.6 665.3011241896735,102 C 857.3,93.4 990.36,375.2 1145.3011241896734,384 C 1300.24,392.8 1381.06,193.6 1440,146" stroke="rgba(51, 121, 194, 0.58)" stroke-width="2"></path></g><defs><mask id="SvgjsMask1002"><rect width="1440" height="560" fill="#ffffff"></rect></mask></defs></svg>